<svg xmlns="http://www.w3.org/2000/svg" viewBox="0 0 512 512">
  <!-- 自宅トレ v3 icon — design 9 (athletic): black × volt yellow, sharp angles, slight italic slant -->
  <rect width="512" height="512" rx="72" fill="#0a0a0b"/>
  <!-- corner speed-cut (top-right) -->
  <path d="M488 24 L488 132 L380 24 Z" fill="#d7ff00" opacity="0.92"/>
  <!-- dumbbell, slanted like the italic numerals -->
  <g fill="#d7ff00" transform="rotate(-12 256 268)">
    <path d="M78 226 h40 v92 h-40 l-8 -8 v-76 Z"/>
    <path d="M394 226 h40 l8 8 v76 l-8 8 h-40 Z"/>
    <rect x="130" y="188" width="46" height="168"/>
    <rect x="336" y="188" width="46" height="168"/>
    <rect x="176" y="248" width="160" height="48"/>
  </g>
  <!-- baseline hazard ticks (design-9 footer motif) -->
  <g fill="#d7ff00" opacity="0.85">
    <path d="M96 440 l20 -14 h26 l-20 14 Z"/>
    <path d="M152 440 l20 -14 h26 l-20 14 Z"/>
    <path d="M208 440 l20 -14 h26 l-20 14 Z"/>
    <path d="M264 440 l20 -14 h26 l-20 14 Z"/>
    <path d="M320 440 l20 -14 h26 l-20 14 Z"/>
    <path d="M376 440 l20 -14 h26 l-20 14 Z"/>
  </g>
</svg>
